<?xml version="1.0" encoding="UTF-8" standalone="no"?>
<!DOCTYPE svg PUBLIC "-//W3C//DTD SVG 1.1//EN" "http://www.w3.org/Graphics/SVG/1.1/DTD/svg11.dtd">
<!-- Created with Vectornator (http://vectornator.io/) -->
<svg height="100%" stroke-miterlimit="10" style="fill-rule:nonzero;clip-rule:evenodd;stroke-linecap:round;stroke-linejoin:round;" version="1.1" viewBox="0 0 650.342 918.756" width="100%" xml:space="preserve" xmlns="http://www.w3.org/2000/svg" xmlns:xlink="http://www.w3.org/1999/xlink">
<defs/>
<g id="Untitled">
<path d="M600.125 730.5L325.812 900L48.2023 733.138L45.5654 409.309L321.855 239.809L598.807 406.012L600.125 730.5Z" fill="#000000" fill-rule="nonzero" opacity="1" stroke="none"/>
<path d="M323.862 577.522L535.63 447.008L322.338 319.032L109.553 449.548L323.862 577.522Z" fill="#0084c1" fill-rule="nonzero" opacity="1" stroke="none"/>
<path d="M536.646 696.865L535.63 447.008L323.862 577.522L325.385 827.379L536.646 696.865Z" fill="#00d3b9" fill-rule="nonzero" opacity="1" stroke="none"/>
<path d="M109.553 449.548L323.862 577.522L325.385 827.379L111.584 698.896L109.553 449.548Z" fill="#82eddf" fill-rule="nonzero" opacity="1" stroke="none"/>
</g>
<g id="Layer-1">
<path d="M504.183 397.612C485.366 401.317 465.789 400.617 447.304 395.611C440.965 401.218 433.326 405.012 424.968 406.658C407.642 410.069 389.859 403.404 378.864 390.114C361.319 407.568 339.368 419.253 314.863 424.077C270.32 432.846 225.022 417.03 195.521 382.721C195.37 382.758 195.217 382.788 195.065 382.818C127.175 396.184 61.0768 351.825 47.7125 283.942C34.3468 216.052 78.6989 149.955 146.589 136.59C158.124 134.319 169.959 133.725 181.889 134.813C188.873 81.8727 229.087 38.5586 281.945 28.1521C320.648 20.5325 360.783 31.7093 390.106 58.0914C390.807 57.9172 391.502 57.7585 392.217 57.6177C460.1 44.2534 526.204 88.6041 539.569 156.494C540.111 159.248 540.557 162.028 540.919 164.925C573.336 182.946 595.889 213.845 603.058 250.259C616.424 318.143 572.066 384.248 504.183 397.612Z" fill="#5ec8f8" fill-rule="nonzero" opacity="1" stroke="#000000" stroke-linecap="butt" stroke-linejoin="round" stroke-width="32"/>
<path d="M52.984 247.224" fill="none" opacity="1" stroke="#000000" stroke-linecap="butt" stroke-linejoin="round" stroke-width="38"/>
</g>
<g id="Layer-2">
<path d="M375.923 534.209C380.543 534.338 389.124 531.666 401.668 526.193C414.211 520.719 426.764 513.258 439.327 503.809C451.889 494.36 462.441 484.069 470.982 472.936C479.524 461.802 486.676 449.104 492.439 434.841C498.201 420.579 502.142 405.34 504.261 389.126C506.38 372.912 506.488 355.856 504.586 337.957C502.684 320.059 500.252 306.213 497.29 296.422C494.329 286.63 491.358 278.826 488.377 273.01C486.887 270.102 485.396 267.194 483.906 264.285C491.121 260.882 498.336 257.478 505.551 254.074C519.981 247.267 528.706 242.796 531.724 240.661C534.743 238.527 536.363 236.815 536.584 235.527C536.805 234.239 536.437 232.518 535.481 230.364C534.524 228.211 532.812 226.591 530.346 225.505C527.88 224.419 500.491 216.901 448.178 202.952C395.865 189.002 368.577 182.828 366.313 184.429C364.049 186.03 362.475 189.407 361.591 194.56C360.706 199.713 357.776 228.387 352.799 280.581C347.822 332.776 346.778 360.116 349.667 362.601C352.556 365.086 362.445 358.66 379.333 343.322C387.778 335.653 396.222 327.984 404.666 320.315C407.936 327.342 411.207 334.368 414.477 341.395C421.018 355.447 425.438 369.302 427.736 382.959C430.035 396.615 430.677 408.33 429.663 418.102C428.65 427.875 426.78 436.838 424.055 444.991C421.33 453.143 416.718 462.63 410.22 473.451C403.721 484.272 395.047 495.217 384.196 506.286C373.344 517.354 367.62 523.666 367.021 525.221C366.423 526.776 366.602 528.631 367.559 530.784C368.516 532.938 371.304 534.079 375.923 534.209Z" fill="#ffbe59" fill-rule="nonzero" opacity="1" stroke="#000000" stroke-linecap="butt" stroke-linejoin="miter" stroke-width="19"/>
<path d="M291.371 320.395C286.756 320.63 278.412 323.97 266.339 330.416C254.266 336.862 242.341 345.289 230.562 355.7C218.784 366.11 209.077 377.201 201.44 388.973C193.803 400.746 187.675 413.968 183.055 428.641C178.435 443.314 175.708 458.815 174.874 475.146C174.041 491.477 175.278 508.489 178.586 526.182C181.894 543.874 185.41 557.485 189.134 567.012C192.859 576.54 196.436 584.085 199.867 589.648C201.582 592.43 203.297 595.211 205.012 597.993C198.087 601.955 191.163 605.917 184.239 609.88C170.391 617.804 162.046 622.949 159.205 625.315C156.364 627.681 154.884 629.515 154.766 630.816C154.647 632.118 155.149 633.804 156.273 635.876C157.396 637.947 159.23 639.427 161.774 640.315C164.318 641.204 192.215 646.538 245.465 656.318C298.715 666.098 326.405 670.101 328.536 668.327C330.667 666.552 331.97 663.062 332.445 657.855C332.92 652.648 333.58 623.833 334.425 571.408C335.271 518.984 334.155 491.647 331.079 489.397C328.003 487.148 318.652 494.334 303.025 510.956C295.212 519.267 287.399 527.578 279.586 535.888C275.772 529.142 271.957 522.395 268.143 515.649C260.514 502.155 255.016 488.692 251.648 475.26C248.279 461.827 246.715 450.2 246.955 440.377C247.195 430.555 248.351 421.473 250.425 413.131C252.499 404.788 256.348 394.967 261.973 383.668C267.598 372.368 275.382 360.773 285.327 348.883C295.271 336.993 300.48 330.249 300.954 328.652C301.428 327.055 301.103 325.22 299.979 323.149C298.856 321.078 295.986 320.159 291.371 320.395Z" fill="#ffbe59" fill-rule="nonzero" opacity="1" stroke="#000000" stroke-linecap="butt" stroke-linejoin="miter" stroke-width="19"/>
</g>
</svg>
